# xmcd
#
# Track frame offsets:
#	150
#	23133
#	37369
#	55497
#	70897
#	92196
#	116404
#	142961
#	174403
#	198387
#	222230
#	243400
#	263774
#	279611
#	305498
#
# Disc length: 4443 seconds
#
# Revision: 0
# Processed by: cddbd v1.5.2PL0 Copyright (c) Steve Scherf et al.
# Submitted via: EasyCDDAExtractor 16.0.4.1
#
DISCID=e211590f
DTITLE=Kiki Lesendrić i Piloti - Svet Je Lep Kada Sanjamo [ Live ]
DYEAR=2011
DGENRE=Pop
TTITLE0=Kada Sanjamo[ Live ]
TTITLE1=Ne Veruj u Idole [ Live ]
TTITLE2=Čini Mi Se Da [ Live ]
TTITLE3=Ako MIsliš Da Sam Tužan [ Live ]
TTITLE4=Oltar [ Live ]
TTITLE5=Kako Si Lepa [ Live ]
TTITLE6=Leto [ Live ]
TTITLE7=Te Noći Smo Se Potukli Zbog Nje [ Live ]
TTITLE8=Bog Vidi Sve [ Live ]
TTITLE9=Uvek Te Đavo Nađe Lakše Nego Ja [ Live ]
TTITLE10=Rekla Je Da u Mojoj Glavi Čuje Gitare i Bubnjeve [ Live ]
TTITLE11=To Je Sudbina [ Live ]
TTITLE12=Neverna Si [ Live ]
TTITLE13=Kao Ptica Na Mom Dlanu [ Live ]
TTITLE14=Zaboravljeni [ Live ]\n
EXTD=
EXTT0=
EXTT1=
EXTT2=
EXTT3=
EXTT4=
EXTT5=
EXTT6=
EXTT7=
EXTT8=
EXTT9=
EXTT10=
EXTT11=
EXTT12=
EXTT13=
EXTT14=
PLAYORDER=
